<?xml version="1.0" standalone="no"?>
<!DOCTYPE svg PUBLIC "-//W3C//DTD SVG 20010904//EN"
 "http://www.w3.org/TR/2001/REC-SVG-20010904/DTD/svg10.dtd">
<svg version="1.0" xmlns="http://www.w3.org/2000/svg"
 width="512.000000pt" height="512.000000pt" viewBox="0 0 512.000000 512.000000"
 preserveAspectRatio="xMidYMid meet">
<metadata>
Created by potrace 1.14, written by Peter Selinger 2001-2017
</metadata>
<g transform="translate(0.000000,512.000000) scale(0.100000,-0.100000)"
fill="#000000" stroke="none">
<path d="M750 3720 l0 -900 160 0 160 0 0 610 c0 482 3 610 13 610 6 -1 201
-275 432 -610 l420 -610 148 0 147 0 -2 898 -3 897 -160 0 -160 0 -3 -612 c-1
-337 -5 -613 -10 -613 -4 1 -198 277 -430 615 l-424 615 -144 0 -144 0 0 -900z"/>
<path d="M3160 4480 l0 -140 460 -2 460 -3 -455 -653 -455 -652 0 -105 0 -105
660 0 660 0 0 135 0 135 -459 2 -460 3 460 660 459 659 0 103 0 103 -665 0
-665 0 0 -140z"/>
<path d="M1321 2309 c-246 -41 -462 -210 -576 -450 -119 -251 -121 -644 -5
-914 35 -81 126 -210 189 -267 106 -95 224 -155 367 -184 99 -21 328 -14 419
11 188 53 354 185 443 353 34 65 72 174 72 209 0 21 -4 23 -47 23 -27 0 -98 3
-160 7 l-112 6 -12 -47 c-27 -107 -127 -214 -242 -258 -64 -25 -212 -35 -286
-19 -183 39 -318 185 -368 398 -25 107 -25 350 0 443 57 212 182 348 362 395
105 27 242 13 337 -36 90 -46 171 -147 197 -246 l12 -43 163 0 163 0 -9 53
c-23 125 -111 291 -199 373 -102 95 -241 164 -384 189 -95 16 -238 18 -324 4z"/>
<path d="M3157 2293 c-4 -3 -7 -408 -7 -900 l0 -893 409 0 c520 0 580 9 731
105 141 90 208 232 198 420 -4 77 -11 104 -38 163 -56 121 -175 216 -297 237
-49 8 -56 22 -15 31 95 23 206 114 248 203 39 81 45 219 14 310 -64 190 -215
295 -460 321 -106 11 -773 14 -783 3z m742 -274 c27 -5 69 -23 94 -39 135 -85
138 -292 6 -387 -71 -51 -137 -63 -341 -63 l-178 0 0 250 0 250 185 0 c101 0
206 -5 234 -11z m91 -750 c30 -14 72 -43 92 -64 58 -58 73 -98 73 -191 0 -71
-3 -85 -28 -122 -65 -98 -150 -122 -444 -122 l-203 0 0 266 0 266 228 -4 c221
-3 229 -4 282 -29z"/>
</g>
</svg>
